Coordinates
version=1
nRows=27
nColumns=12
inDegrees=yes

Units are S.I. units (second, meters, Newtons, ...)
Angles are in degrees

endheader
time	SC_y	SC_z	SC_x	AC_y	AC_z	AC_x	GH_y	GH_z	GH_yy	EL_x	PS_y
       0.0              -41.11           19.8           82.4           69.9         -14.68         -11.61          62.24           84.2         -159.6          72.91          54.02
   0.03388              -41.11           19.8           82.4           69.9         -14.68         -11.61          62.23          84.19         -159.6          72.91          54.03
   0.06777              -41.11           19.8           82.4          69.89         -14.68         -11.61          62.22          84.18         -159.6          72.91          54.04
    0.1016              -41.11           19.8           82.4          69.89         -14.68          -11.6          62.21          84.17         -159.5          72.91          54.05
    0.1355              -41.11           19.8           82.4          69.88         -14.68          -11.6           62.2          84.16         -159.5          72.91          54.06
    0.1694              -41.11           19.8           82.4          69.88         -14.67         -11.59          62.19          84.15         -159.5          72.91          54.07
    0.2033              -41.11           19.8          82.41          69.87         -14.67         -11.59          62.18          84.14         -159.5          72.91          54.08
    0.2372              -41.11           19.8          82.41          69.87         -14.67         -11.59          62.17          84.13         -159.5           72.9          54.09
    0.2711              -41.11           19.8          82.41          69.86         -14.67         -11.58          62.15          84.12         -159.5           72.9           54.1
    0.3049              -41.11           19.8          82.41          69.85         -14.67         -11.57          62.14          84.11         -159.5           72.9          54.12
    0.3388              -41.11           19.8          82.41          69.84         -14.67         -11.57          62.13           84.1         -159.5           72.9          54.13
    0.3727              -41.11           19.8          82.41          69.84         -14.67         -11.56          62.11          84.08         -159.5           72.9          54.15
    0.4066              -41.11           19.8          82.41          69.83         -14.66         -11.55          62.09          84.07         -159.5           72.9          54.17
    0.4405              -41.11           19.8          82.41          69.82         -14.66         -11.55          62.07          84.05         -159.5           72.9          54.18
    0.4744              -41.11           19.8          82.41          69.81         -14.66         -11.54          62.05          84.03         -159.5          72.89           54.2
    0.5082              -41.11           19.8          82.41           69.8         -14.66         -11.53          62.03          84.01         -159.4          72.89          54.23
    0.5421              -41.11           19.8          82.41          69.79         -14.66         -11.52          62.01          83.99         -159.4          72.89          54.25
     0.576              -41.11           19.8          82.41          69.77         -14.65         -11.51          61.98          83.97         -159.4          72.89          54.27
    0.6099              -41.11           19.8          82.41          69.76         -14.65          -11.5          61.95          83.94         -159.4          72.89           54.3
    0.6438              -41.11           19.8          82.41          69.75         -14.65         -11.49          61.92          83.91         -159.4          72.88          54.33
    0.6777              -41.11          19.81          82.42          69.73         -14.64         -11.47          61.89          83.88         -159.4          72.88          54.37
    0.7115              -41.11          19.81          82.42          69.71         -14.64         -11.46          61.85          83.85         -159.3          72.88           54.4
    0.7454              -41.11          19.81          82.42          69.69         -14.64         -11.44          61.81          83.81         -159.3          72.87          54.44
    0.7793              -41.11          19.81          82.42          69.67         -14.63         -11.42          61.77          83.77         -159.3          72.87          54.49
    0.8132               -41.1          19.81          82.42          69.64         -14.63          -11.4          61.72          83.73         -159.3          72.86          54.54
    0.8471               -41.1          19.81          82.42          69.61         -14.62         -11.38          61.66          83.68         -159.2          72.86          54.59
     0.881               -41.1          19.81          82.43          69.58         -14.62         -11.35           61.6          83.62         -159.2          72.85          54.66
